<svg height='300px' width='300px'  fill="#000000" xmlns="http://www.w3.org/2000/svg" xmlns:xlink="http://www.w3.org/1999/xlink" version="1.1" x="0px" y="0px" viewBox="0 0 100 100" enable-background="new 0 0 100 100" xml:space="preserve"><path d="M60,56v-7.586l-2-2L59.414,45L60,45.586v-1.172l2-2V57c0,0.552-0.448,1-1,1H46.414l2-2H60z M64,66H38.414l-2,2H65  c0.552,0,1-0.448,1-1V38.414l-2,2V66z M73.707,27.707l-46,46c-0.39,0.391-1.024,0.391-1.414,0c-0.391-0.391-0.391-1.023,0-1.414  L32,66.586V29c0-0.552,0.448-1,1-1h32c0.552,0,1,0.448,1,1v3.586l6.293-6.293c0.391-0.391,1.023-0.391,1.414,0  S74.098,27.316,73.707,27.707z M34,64.586L40.586,58H37c-0.552,0-1-0.448-1-1V33c0-0.552,0.448-1,1-1h24c0.552,0,1,0.448,1,1v3.586  l2-2V30H34V64.586z M56.5,42.086l3.5-3.5V34H38v13.503l3.251-3.251c0.391-0.391,1.023-0.391,1.414,0L46,47.586l7.293-7.293  c0.391-0.391,1.023-0.391,1.414,0L56.5,42.086z M54,42.414l-7.293,7.293c-0.391,0.391-1.023,0.391-1.414,0l-3.334-3.334L38,50.331  V56h4.586l12.5-12.5L54,42.414z"></path></svg>